<svg width="1147" height="251" viewBox="0 0 1147 251" fill="none" xmlns="http://www.w3.org/2000/svg">
<path d="M484.406 196.434L442.385 28.8975H479.876L508.05 144.856H508.528L549.122 28.8975H581.356L621.949 144.856H622.428L650.841 28.8975H688.092L646.062 196.434H607.863L565.354 84.4396H564.885L522.136 196.434H484.406Z" fill="black"/>
<path d="M699.574 28.8975H734.91V84.4396H735.389C738.511 78.6938 744.688 74.126 751.918 71.0328C758.621 68.16 768.35 66.3405 776.94 66.2926C786.392 66.2447 799.464 68.6771 808.695 73.4556C818.08 78.5502 825.176 85.3972 829.945 93.9871C835.039 102.903 837.587 112.929 837.587 124.076V196.424H802.25V128.845C802.25 118.981 799.301 111.339 793.411 105.919C787.522 100.508 779.478 97.7984 769.289 97.7984C759.1 97.7984 750.979 100.662 744.458 106.398C738.09 112.124 734.91 119.613 734.91 128.845V196.424H699.574V28.8975Z" fill="black"/>
<path d="M849.892 133.155C849.892 123.129 851.798 113.974 855.619 105.7C859.44 97.4262 864.649 90.3781 871.257 84.5654C877.864 78.7526 885.468 74.2614 894.058 71.0725C902.657 67.8932 911.726 66.2939 921.283 66.2939C930.84 66.2939 940.426 67.9315 949.102 71.1874C957.778 74.4529 965.343 78.992 971.788 84.7952C978.233 90.608 983.327 97.6082 987.071 105.805C990.806 114.003 992.683 123.119 992.683 133.146C992.683 143.172 990.768 152.528 986.957 160.725C983.136 168.922 977.964 175.932 971.434 181.735C964.903 187.548 957.309 192.039 948.633 195.228C939.956 198.408 930.84 200.007 921.292 200.007C911.745 200.007 902.389 198.369 893.713 195.113C885.037 191.848 877.472 187.27 871.027 181.381C864.582 175.492 859.449 168.453 855.628 160.246C851.807 152.049 849.902 143.019 849.902 133.146L849.892 133.155ZM957.347 133.155C957.347 122.334 954.043 113.658 947.435 107.127C940.828 100.606 932.114 97.3401 921.292 97.3401C916.035 97.3401 911.18 98.2211 906.727 99.964C902.264 101.716 898.444 104.139 895.264 107.251C892.075 110.354 889.614 114.137 887.862 118.59C886.109 123.052 885.238 127.898 885.238 133.155C885.238 138.412 886.109 143.229 887.862 147.606C889.614 151.982 892.123 155.765 895.379 158.944C898.645 162.133 902.456 164.594 906.842 166.346C911.218 168.099 916.035 168.97 921.292 168.97C926.55 168.97 931.395 168.099 935.858 166.346C940.311 164.594 944.132 162.171 947.321 159.059C950.5 155.956 952.971 152.174 954.723 147.721C956.475 143.268 957.347 138.412 957.347 133.155Z" fill="black"/>
<path d="M1005.47 66.2456H1039.38V84.4404H1039.86C1042.07 79.6523 1051.4 71.6657 1058.72 69.5207C1066.04 67.3756 1073.44 66.2935 1080.93 66.2935C1090.48 66.2935 1099.23 68.0459 1107.2 71.5508C1115.15 75.0557 1122.04 79.8343 1127.85 85.8769C1133.66 91.929 1138.19 99.0059 1141.46 107.127C1144.72 115.247 1146.35 123.923 1146.35 133.155C1146.35 142.386 1144.72 151.541 1141.46 159.662C1138.19 167.782 1133.65 174.821 1127.85 180.796C1122.04 186.762 1115.12 191.464 1107.08 194.883C1099.04 198.302 1090.32 200.016 1080.94 200.016C1077.91 200.016 1074.53 199.738 1070.79 199.183C1067.04 198.627 1063.38 197.785 1059.8 196.674C1056.22 195.563 1052.79 194.165 1049.54 192.499C1046.27 190.823 1043.52 188.879 1041.3 186.647H1040.82V250.167H1005.49V66.2456H1005.47ZM1111.01 133.155C1111.01 122.334 1107.74 113.696 1101.22 107.251C1094.69 100.806 1086.01 97.579 1075.19 97.579C1071.37 97.579 1067.44 98.2206 1063.37 99.4847C1059.31 100.758 1055.62 102.587 1052.28 104.981C1048.93 107.366 1046.19 110.239 1044.04 113.581C1041.9 116.923 1040.81 120.744 1040.81 125.044V141.046C1040.81 146.619 1042.44 151.474 1045.71 155.611C1048.96 159.748 1053.07 162.937 1058 165.158C1063.1 167.706 1068.9 168.979 1075.43 168.979C1086.09 168.979 1094.69 165.676 1101.22 159.068C1107.74 152.46 1111.01 143.823 1111.01 133.164V133.155Z" fill="black"/>
<path d="M61.2039 0.166016C36.0184 0.166016 18.6567 11.217 5.51812 23.714C5.51812 23.714 0.212893 28.7415 0.279927 28.8947L55.4581 84.0729L110.627 28.8947C100.179 14.5112 80.4808 0.166016 61.2039 0.166016Z" fill="#FF6143"/>
<path d="M197.454 0.166016C172.269 0.166016 154.907 11.217 141.769 23.714C141.769 23.714 136.923 28.6074 136.703 28.8947L68.501 97.1061L123.593 152.198L246.877 28.8947C236.43 14.5112 216.741 0.166016 197.454 0.166016Z" fill="#FF6143"/>
<path d="M334.078 0.166016C308.893 0.166016 291.531 11.217 278.392 23.714C278.392 23.714 273.346 28.6457 273.154 28.8947L136.722 165.346L151.163 179.787C173.504 202.129 210.076 202.129 232.417 179.787L383.329 28.8947H383.501C373.053 14.5112 353.365 0.166016 334.078 0.166016Z" fill="#FF6143"/>
</svg>
